<?xml version="1.0" encoding="UTF-8"?>
<svg version="1.1" xmlns="http://www.w3.org/2000/svg" width="256" height="256">
<path d="M0 0 C0.93754692 -0.00297112 1.87509385 -0.00594224 2.84105128 -0.0090034 C5.99623124 -0.01770501 9.15137331 -0.01919988 12.30656433 -0.02069092 C14.5632536 -0.02531804 16.81994208 -0.03034255 19.07662964 -0.03573608 C25.21715459 -0.04887188 31.35766861 -0.05530729 37.49820542 -0.05974674 C41.33239976 -0.06267543 45.16659109 -0.06677983 49.00078392 -0.07125092 C59.6166118 -0.08336097 70.23243706 -0.09374274 80.84827137 -0.09712601 C81.52770722 -0.09734557 82.20714308 -0.09756514 82.90716789 -0.09779136 C83.58822887 -0.09800964 84.26928986 -0.09822791 84.97098905 -0.09845281 C86.35107664 -0.09889627 87.73116424 -0.09934284 89.11125183 -0.09979248 C89.79582286 -0.10001391 90.48039389 -0.10023534 91.1857095 -0.10046348 C102.27805514 -0.10441144 113.37033508 -0.1218655 124.46265534 -0.145152 C135.85104925 -0.16886708 147.2393991 -0.18106995 158.6278221 -0.18249393 C165.02197823 -0.1835433 171.41604171 -0.18947932 177.81017494 -0.20731354 C183.82410729 -0.22376071 189.83787702 -0.22596599 195.85182381 -0.21717453 C198.06012659 -0.21640237 200.268438 -0.22077031 202.4767189 -0.23063278 C205.48963841 -0.24330058 208.50197743 -0.2375034 211.51489258 -0.22705078 C212.39028728 -0.23510719 213.26568198 -0.24316359 214.16760379 -0.25146413 C220.02741238 -0.20386606 224.34853344 0.74268328 228.811203 4.85919189 C229.28944519 5.44700439 229.76768738 6.03481689 230.26042175 6.64044189 C230.75155457 7.22825439 231.24268738 7.81606689 231.748703 8.42169189 C234.67549962 12.61644927 234.09316456 17.3051475 234.08836365 22.19252014 C234.09282033 23.59884053 234.09282033 23.59884053 234.09736705 25.03357142 C234.10606866 28.18875138 234.10756353 31.34389345 234.10905457 34.49908447 C234.11368169 36.75577374 234.1187062 39.01246222 234.12409973 41.26914978 C234.13723552 47.40967474 234.14367093 53.55018875 234.14811039 59.69072556 C234.15103907 63.5249199 234.15514348 67.35911123 234.15961456 71.19330406 C234.17172462 81.80913194 234.18210639 92.4249572 234.18548965 103.04079151 C234.18570922 103.72022736 234.18592879 104.39966322 234.18615501 105.09968803 C234.18637328 105.78074902 234.18659156 106.46181 234.18681645 107.16350919 C234.18725992 108.54359679 234.18770648 109.92368438 234.18815613 111.30377197 C234.18837756 111.988343 234.18859899 112.67291403 234.18882713 113.37822964 C234.19277509 124.47057528 234.21022915 135.56285522 234.23351565 146.65517548 C234.25723073 158.04356939 234.2694336 169.43191924 234.27085757 180.82034224 C234.27190695 187.21449837 234.27784297 193.60856185 234.29567719 200.00269508 C234.31212435 206.01662744 234.31432963 212.03039716 234.30553818 218.04434395 C234.30476602 220.25264674 234.30913396 222.46095815 234.31899643 224.66923904 C234.33166423 227.68215855 234.32586705 230.69449757 234.31541443 233.70741272 C234.32749904 235.02050477 234.32749904 235.02050477 234.33982778 236.36012393 C234.29222971 242.21993252 233.34568036 246.54105358 229.22917175 251.00372314 C228.64135925 251.48196533 228.05354675 251.96020752 227.44792175 252.45294189 C226.86010925 252.94407471 226.27229675 253.43520752 225.66667175 253.94122314 C221.47191438 256.86801977 216.78321615 256.2856847 211.89584351 256.28088379 C210.95829658 256.28385491 210.02074966 256.28682603 209.05479223 256.28988719 C205.89961227 256.2985888 202.74447019 256.30008367 199.58927917 256.30157471 C197.33258991 256.30620183 195.07590143 256.31122634 192.81921387 256.31661987 C186.67868891 256.32975566 180.5381749 256.33619107 174.39763808 256.34063053 C170.56344374 256.34355922 166.72925241 256.34766362 162.89505959 256.3521347 C152.27923171 256.36424476 141.66340645 256.37462653 131.04757214 256.3780098 C130.36813628 256.37822936 129.68870043 256.37844893 128.98867561 256.37867515 C128.30761463 256.37889343 127.62655365 256.3791117 126.92485446 256.3793366 C125.54476686 256.37978006 124.16467927 256.38022662 122.78459167 256.38067627 C121.75773513 256.38100841 121.75773513 256.38100841 120.71013401 256.38134727 C109.61778837 256.38529523 98.52550842 256.40274929 87.43318816 256.42603579 C76.04479425 256.44975087 64.6564444 256.46195374 53.2680214 256.46337771 C46.87386528 256.46442709 40.47980179 256.47036311 34.08566856 256.48819733 C28.07173621 256.50464449 22.05796649 256.50684978 16.0440197 256.49805832 C13.83571691 256.49728616 11.6274055 256.5016541 9.4191246 256.51151657 C6.4062051 256.52418437 3.39386608 256.51838719 0.38095093 256.50793457 C-0.49444377 256.51599097 -1.36983847 256.52404738 -2.27176028 256.53234792 C-8.13156887 256.48474985 -12.45268994 255.5382005 -16.9153595 251.42169189 C-17.39360168 250.83387939 -17.87184387 250.24606689 -18.36457825 249.64044189 C-18.85571106 249.05262939 -19.34684387 248.46481689 -19.8528595 247.85919189 C-22.77965612 243.66443452 -22.19732105 238.97573629 -22.19252014 234.08836365 C-22.19549126 233.15081672 -22.19846239 232.2132698 -22.20152354 231.24731237 C-22.21022515 228.09213241 -22.21172002 224.93699033 -22.21321106 221.78179932 C-22.21783818 219.52511005 -22.2228627 217.26842157 -22.22825623 215.01173401 C-22.24139202 208.87120905 -22.24782743 202.73069504 -22.25226688 196.59015822 C-22.25519557 192.75596389 -22.25929997 188.92177255 -22.26377106 185.08757973 C-22.27588111 174.47175185 -22.28626288 163.85592659 -22.28964615 153.24009228 C-22.28986571 152.56065642 -22.29008528 151.88122057 -22.2903115 151.18119575 C-22.29052978 150.50013477 -22.29074806 149.81907379 -22.29097295 149.1173746 C-22.29141641 147.737287 -22.29186298 146.35719941 -22.29231262 144.97711182 C-22.29264477 143.95025527 -22.29264477 143.95025527 -22.29298362 142.90265415 C-22.29693158 131.81030851 -22.31438564 120.71802857 -22.33767214 109.6257083 C-22.36138722 98.23731439 -22.37359009 86.84896455 -22.37501407 75.46054155 C-22.37606344 69.06638542 -22.38199946 62.67232194 -22.39983368 56.27818871 C-22.41628085 50.26425635 -22.41848613 44.25048663 -22.40969467 38.23653984 C-22.40892251 36.02823705 -22.41329045 33.81992564 -22.42315292 31.61164474 C-22.43582073 28.59872524 -22.43002354 25.58638622 -22.41957092 22.57347107 C-22.42762733 21.69807637 -22.43568373 20.82268167 -22.44398427 19.92075986 C-22.3963862 14.06095127 -21.44983686 9.73983021 -17.33332825 5.27716064 C-16.74551575 4.79891846 -16.15770325 4.32067627 -15.55207825 3.82794189 C-14.96426575 3.33680908 -14.37645325 2.84567627 -13.77082825 2.33966064 C-9.57607087 -0.58713598 -4.88737265 -0.00480091 0 0 Z M19.1627655 42.08184814 C13.86935595 48.87693417 13.20055052 54.61607723 13.94792175 63.14044189 C15.69461102 69.84906373 20.12524074 73.6850932 25.94792175 77.14044189 C32.02335742 79.16558712 39.40027706 79.24090678 45.32292175 76.64044189 C50.46630512 73.64460899 54.0833062 68.73428854 55.94792175 63.14044189 C56.60899128 55.82532827 56.71631883 49.07121831 51.94792175 43.14044189 C45.60589855 37.30884309 40.59230602 35.75719313 32.0221405 35.87091064 C26.5552174 36.35022156 22.88222346 38.03683589 19.1627655 42.08184814 Z M113.76042175 108.57794189 C112.36823425 110.34137939 112.36823425 110.34137939 110.94792175 112.14044189 C110.61792175 106.86044189 110.28792175 101.58044189 109.94792175 96.14044189 C98.06792175 96.14044189 86.18792175 96.14044189 73.94792175 96.14044189 C73.94792175 136.40044189 73.94792175 176.66044189 73.94792175 218.14044189 C86.48792175 218.14044189 99.02792175 218.14044189 111.94792175 218.14044189 C111.98530457 212.96356689 112.02268738 207.78669189 112.061203 202.45294189 C112.09149865 199.16254477 112.12265687 195.8722007 112.15690613 192.58184814 C112.21112071 187.36556755 112.26223482 182.14939189 112.2943573 176.93292236 C112.32047183 172.72467193 112.36093108 168.51677621 112.41110802 164.30874634 C112.42772184 162.70773754 112.43927015 161.10666746 112.44553566 159.50558472 C112.48546728 150.23494807 112.63276847 142.6231954 117.57292175 134.45294189 C122.91705819 129.24944063 128.91968984 126.38757008 136.3971405 126.01544189 C142.73097995 126.32582913 148.07634558 127.66755147 152.44792175 132.45294189 C156.58243626 137.60906609 157.24665059 143.38039549 157.26676941 149.79815674 C157.27681503 150.54030426 157.28686066 151.28245178 157.29721069 152.04708862 C157.32791664 154.48184487 157.34504244 156.91649181 157.36198425 159.35137939 C157.38070606 161.04675224 157.40028023 162.74211587 157.42066956 164.43746948 C157.47188983 168.88597161 157.51156948 173.33450392 157.54881287 177.78314209 C157.59597475 183.12807568 157.65752913 188.47286072 157.71665955 193.81767273 C157.8047486 201.92520215 157.87460095 210.03270488 157.94792175 218.14044189 C170.48792175 218.14044189 183.02792175 218.14044189 195.94792175 218.14044189 C196.00625209 205.20099731 196.00625209 205.20099731 196.045578 192.26153564 C196.05745741 186.97129216 196.07139227 181.68111898 196.09880066 176.39093018 C196.12079598 172.11798847 196.13254557 167.84512232 196.13767624 163.5721283 C196.14132477 161.9553458 196.14844657 160.33856665 196.15938187 158.72181702 C196.28782213 138.9146248 195.50850197 119.64899043 181.29167175 104.35919189 C171.13369169 94.96785184 158.81986732 92.52616488 145.46354675 92.83184814 C133.23072885 93.44654979 121.82561368 99.42767395 113.76042175 108.57794189 Z M15.94792175 96.14044189 C15.94792175 136.40044189 15.94792175 176.66044189 15.94792175 218.14044189 C28.48792175 218.14044189 41.02792175 218.14044189 53.94792175 218.14044189 C53.94792175 177.88044189 53.94792175 137.62044189 53.94792175 96.14044189 C41.40792175 96.14044189 28.86792175 96.14044189 15.94792175 96.14044189 Z " fill="#0A66C2" transform="translate(22.052078247070313,-0.14044189453125)"/>
</svg>
